<svg width="600" height="780" viewBox="0 0 600 780" fill="none" xmlns="http://www.w3.org/2000/svg">
  <defs>
    <filter id="shadow" x="-50%" y="-50%" width="200%" height="200%">
      <feDropShadow dx="0" dy="12" stdDeviation="22" flood-color="rgba(15,23,42,0.2)" />
    </filter>
  </defs>
  <g filter="url(#shadow)">
    <path d="M150 120C150 85 195 60 240 60H360C405 60 450 85 450 120V660C450 705 405 720 360 720H240C195 720 150 705 150 660V120Z" fill="#ffffff" />
    <path d="M180 100C180 82 210 70 240 70H360C390 70 420 82 420 100V130C420 155 390 160 360 160H240C210 160 180 155 180 130V100Z" fill="#f8fafc" />
    <path d="M150 180C150 150 210 140 240 140H360C390 140 450 150 450 180V220C450 250 390 260 360 260H240C210 260 150 250 150 220V180Z" fill="#f1f5f9" />
  </g>
</svg>
